<svg width="30" height="40" viewBox="0 0 30 40" fill="none" xmlns="http://www.w3.org/2000/svg">
<g id="Group">
<g id="Group_2">
<path id="Vector" d="M11.9092 35.8834C11.464 33.9968 11.679 32.1214 12.196 30.4159C11.6904 32.178 11.4828 34.0609 11.9092 35.8834Z" fill="#6BDD99"/>
<path id="Vector_2" d="M28.498 39.3988C14.7555 41.5722 12.3141 37.1536 12.3141 37.1536C12.2047 36.8782 12.1066 36.6027 12.0273 36.3273C12.1104 36.6027 12.2047 36.8744 12.3179 37.1461C12.3179 37.1461 14.5894 41.0552 27.2415 38.0819C27.2 38.2252 27.1924 38.38 27.2339 38.5347C27.3509 38.9799 27.8037 39.244 28.2489 39.1271C28.2754 39.1195 28.3018 39.112 28.3282 39.1007L28.498 39.3988Z" fill="#6BDD99"/>
<path id="Vector_3" d="M28.2767 35.2269C28.3937 35.6722 28.8767 35.8495 29.3521 35.6231C29.3823 35.608 29.4087 35.5929 29.4351 35.5778L29.6125 35.8533C14.8474 41.2756 12.3155 37.1362 12.3155 37.1362C9.55714 30.6612 16.7793 21.6543 16.7793 21.6543C18.217 22.2392 20.2961 21.2694 20.2961 21.2694L20.4847 21.5675C20.198 21.8354 20.047 22.2316 20.1376 22.5712C20.2546 23.0165 20.7376 23.1938 21.213 22.9674C21.2545 22.9485 21.296 22.9259 21.3375 22.8995L21.496 23.1485C21.2054 23.4164 21.0545 23.8164 21.1413 24.156C21.2583 24.6013 21.7413 24.7786 22.2167 24.5522C22.262 24.5296 22.3035 24.5069 22.345 24.4805L22.5035 24.7258C22.2092 24.9937 22.0545 25.3974 22.145 25.7408C22.262 26.186 22.745 26.3634 23.2204 26.137C23.2657 26.1144 23.311 26.0879 23.3563 26.0615L23.5147 26.3068C23.2166 26.5747 23.0582 26.9784 23.1487 27.3256C23.2657 27.7708 23.7487 27.9482 24.2241 27.7218C24.2732 27.6992 24.3222 27.6727 24.3675 27.6426L24.5222 27.8878C24.2204 28.1557 24.0619 28.5632 24.1524 28.9104C24.2694 29.3556 24.7524 29.533 25.2278 29.3066C25.2807 29.2839 25.3297 29.2538 25.375 29.2236L25.5297 29.4688C25.2241 29.7367 25.0618 30.148 25.1524 30.499C25.2693 30.9442 25.7523 31.1216 26.2278 30.8952C26.2806 30.8687 26.3334 30.8386 26.3825 30.8084L26.5561 31.08C26.2995 31.348 26.1712 31.7177 26.258 32.0347C26.3749 32.4799 26.8579 32.6573 27.3334 32.4309C27.356 32.4196 27.3786 32.4083 27.3975 32.3969L27.5635 32.6573C27.3032 32.9252 27.1749 33.295 27.2579 33.6195C27.3749 34.0647 27.8579 34.2421 28.3333 34.0157C28.3597 34.0044 28.3823 33.9931 28.405 33.978L28.571 34.2345C28.3257 34.5251 28.1937 34.9024 28.2767 35.2269Z" fill="#65A4EF"/>
</g>
<g id="Group_3">
<path id="Vector_4" d="M4.9242 8.73592C5.06004 8.7812 5.21475 8.69818 5.27889 8.5397C5.35059 8.3699 5.29399 8.18501 5.15438 8.12841L5.13551 8.12086C4.99967 8.07558 4.84496 8.15482 4.77704 8.32085C4.71289 8.48687 4.76572 8.66799 4.90533 8.72837L4.9242 8.73592Z" fill="#6BDD99"/>
<path id="Vector_5" d="M6.82476 9.89234L6.8059 9.88479C6.66628 9.83951 6.51157 9.92253 6.44743 10.081C6.37951 10.2546 6.43233 10.4357 6.57195 10.4961L6.59082 10.5036C6.621 10.5149 6.64741 10.5149 6.6776 10.5149C6.75684 10.5112 6.83231 10.4734 6.88514 10.4131V10.4093C6.91532 10.3829 6.93419 10.3451 6.95306 10.3036C7.02098 10.1376 6.9606 9.94894 6.82476 9.89234Z" fill="#6BDD99"/>
<path id="Vector_6" d="M5.22527 15.4388L5.24413 15.4463C5.37997 15.4916 5.53091 15.4086 5.59883 15.2425C5.66675 15.0803 5.61392 14.8879 5.47808 14.8313C5.47431 14.8313 5.47054 14.8237 5.46299 14.8237C5.32338 14.7747 5.16489 14.8652 5.10075 15.0237C5.02905 15.1973 5.08943 15.3784 5.22527 15.4388Z" fill="#6BDD99"/>
<path id="Vector_7" d="M4.92005 18.9989C5.05589 19.0479 5.21437 18.9649 5.28229 18.8027C5.35021 18.6366 5.29361 18.4442 5.15777 18.3838L5.1389 18.3763C5.00306 18.331 4.84458 18.4216 4.78043 18.5763C4.70874 18.7461 4.76911 18.9347 4.90495 18.9951L4.92005 18.9989Z" fill="#6BDD99"/>
<path id="Vector_8" d="M9.01501 21.8532L9.03388 21.857C9.16972 21.906 9.32443 21.8193 9.39235 21.657C9.46027 21.491 9.40367 21.3099 9.26405 21.2457L9.24519 21.2382C9.11312 21.1929 8.95464 21.2797 8.89049 21.4381C8.8188 21.6079 8.8754 21.7928 9.01501 21.8532Z" fill="#6BDD99"/>
<path id="Vector_9" d="M8.28246 24.624L8.33151 24.6542L8.38812 24.6693H8.39189H8.39566C8.51641 24.6844 8.65602 24.6014 8.71262 24.458C8.71639 24.4467 8.7164 24.4353 8.72017 24.4202C8.76922 24.2618 8.71262 24.0957 8.58433 24.0391C8.58055 24.0391 8.58056 24.0391 8.57678 24.0354C8.57301 24.0316 8.56923 24.0316 8.56546 24.0278C8.43339 23.9825 8.27114 24.0693 8.20699 24.2316C8.19945 24.2467 8.19945 24.2618 8.19567 24.2806C8.17681 24.3561 8.18058 24.4316 8.20322 24.4957C8.21831 24.5523 8.24095 24.5938 8.28246 24.624C8.27869 24.624 8.27869 24.624 8.28246 24.624Z" fill="#6BDD99"/>
<path id="Vector_10" d="M20.7798 18.0704C20.7157 18.112 20.6402 18.1459 20.5648 18.1686C20.0893 18.3119 19.5875 18.0403 19.4478 17.5648C19.3309 17.1686 19.4969 16.7536 19.8365 16.546L19.6629 16.2706C19.5988 16.3121 19.5271 16.346 19.4478 16.3687C18.9724 16.5121 18.4743 16.2442 18.3309 15.7687C18.2102 15.3687 18.3838 14.9537 18.7196 14.7461L18.5536 14.4745C18.4894 14.5122 18.4177 14.5462 18.3423 14.5688C17.8668 14.7122 17.365 14.4405 17.2253 13.9651C17.1046 13.5689 17.2744 13.1538 17.6102 12.9463L17.4404 12.6746C17.38 12.7161 17.3084 12.7425 17.2367 12.7652C16.7612 12.9085 16.2594 12.6406 16.116 12.1652C15.999 11.769 16.1688 11.3577 16.4971 11.1464L16.3311 10.8747C16.2707 10.9162 16.2028 10.9426 16.1273 10.9653C15.6519 11.1049 15.1538 10.8408 15.0104 10.3653C14.8934 9.96912 15.0594 9.55783 15.3877 9.34652L15.2179 9.07862C15.1576 9.11258 15.0896 9.14276 15.0217 9.1654C14.5463 9.30502 14.0444 9.03711 13.9048 8.56167C13.7841 8.16924 13.9463 7.76172 14.2746 7.55042L14.1086 7.27874C14.0482 7.3127 13.984 7.34289 13.9161 7.36175C13.4407 7.50514 12.9388 7.23723 12.7954 6.7618C12.6822 6.37314 12.8407 5.96563 13.1652 5.75432L12.9954 5.47887C12.9351 5.51283 12.8747 5.54301 12.8068 5.56188C12.3313 5.70149 11.8332 5.43359 11.6898 4.96192C11.5729 4.5695 11.7314 4.16575 12.0521 3.95444L11.8861 3.68276C11.8257 3.71295 11.7653 3.73936 11.7012 3.75823C11.2257 3.90162 10.7276 3.62994 10.5843 3.1545C10.4673 2.76962 10.622 2.36965 10.9427 2.15457L10.7729 1.88289C10.7201 1.91308 10.6597 1.93949 10.5956 1.95836C10.1201 2.10174 9.61828 1.83006 9.47867 1.35462C9.3617 0.973517 9.5164 0.569773 9.82959 0.354693L9.60696 0C2.14329 6.09392 0.309445 11.4822 0.0453106 14.7726L0.671685 13.2481L3.50547 11.7916L4.64879 9.00315C4.44126 8.83335 4.36579 8.5013 4.49031 8.19189C4.6337 7.84851 4.96952 7.66739 5.26007 7.7655C5.27139 7.77304 5.28271 7.78059 5.2978 7.78437C5.58835 7.90889 5.71287 8.30509 5.56949 8.66733C5.44874 8.9541 5.18838 9.12767 4.93934 9.11635L3.73187 12.0558L0.90186 13.5198L0.00380358 15.7083L3.08727e-05 15.7159C-0.00374247 17.2856 0.339632 18.1836 0.339632 18.1836L0.690553 18.7421L1.40749 16.9913L4.75444 15.2669C4.7469 15.1461 4.76199 15.0254 4.81482 14.9009C4.95443 14.5575 5.29403 14.3764 5.58081 14.4745C5.59213 14.4782 5.60345 14.482 5.61854 14.4896C5.91286 14.6179 6.03738 15.0141 5.88645 15.3725C5.74683 15.7159 5.41101 15.897 5.12423 15.7989L5.0865 15.7838C4.99594 15.7423 4.92047 15.6819 4.86764 15.5951L1.63012 17.2554L0.89054 19.0628L3.21869 22.7494L4.64879 19.2628C4.44126 19.093 4.36956 18.7572 4.49408 18.4516C4.6337 18.112 4.9733 17.9271 5.26007 18.0252L5.2978 18.0403C5.5959 18.1686 5.71287 18.5685 5.56949 18.9232C5.44874 19.2138 5.19215 19.3911 4.94311 19.3798L3.42623 23.0776L4.37711 24.587L8.10894 15.4857L6.69394 10.8823C6.69394 10.8823 6.69394 10.886 6.69017 10.886C6.61848 10.8936 6.54301 10.8823 6.47132 10.8596L6.43358 10.8483C6.13926 10.7162 6.01851 10.3163 6.16567 9.96157C6.30529 9.6182 6.63734 9.43331 6.92789 9.53141C6.94298 9.53896 6.9543 9.54273 6.96562 9.55028C7.25994 9.6748 7.38069 10.0748 7.2373 10.4295C7.18448 10.5615 7.09769 10.671 6.99958 10.7464L8.45232 15.4706L4.58087 24.9115L5.38836 26.1944L6.90525 22.4966L8.54288 21.6513C8.53911 21.5381 8.5542 21.4249 8.60325 21.3155C8.74287 20.9721 9.0787 20.7872 9.36924 20.8891L9.40697 20.9004C9.69752 21.0325 9.82582 21.4249 9.67866 21.7834C9.53904 22.1305 9.19944 22.3154 8.91267 22.2136L8.87493 22.2022C8.76928 22.1607 8.69759 22.0815 8.63721 21.9909L7.13165 22.7645L5.59213 26.5189L6.6864 28.2546L8.05612 24.9115C8.05612 24.9115 8.05612 24.9115 8.05989 24.9077C7.86368 24.7341 7.79576 24.4134 7.92028 24.1153C8.05989 23.7719 8.39572 23.587 8.68627 23.6889C8.69759 23.6927 8.70891 23.6965 8.72023 23.704C9.01832 23.8323 9.13907 24.2285 8.99191 24.587C8.87116 24.8851 8.60325 25.0586 8.34667 25.0322L6.89393 28.5829L7.84859 30.096L11.3352 21.5834L10.1579 17.7535L12.1426 12.9048C11.9502 12.7312 11.8861 12.4067 12.0068 12.1086C12.1464 11.769 12.4822 11.5803 12.7728 11.6822C12.7879 11.686 12.7992 11.6898 12.8068 11.6973C13.1086 11.8256 13.2256 12.2256 13.0822 12.5765C12.9615 12.8746 12.6898 13.0557 12.4332 13.0293L10.505 17.7384L11.6823 21.5608L8.05234 30.4205L8.76551 31.5563L13.4067 20.2326L16.7159 18.5346C16.7084 18.4214 16.731 18.3082 16.7763 18.195C16.9159 17.8516 17.2518 17.6705 17.5423 17.7686C17.5536 17.7724 17.5649 17.7799 17.5763 17.7837C17.8744 17.9157 17.9951 18.3082 17.8479 18.6666C17.7083 19.01 17.3763 19.1949 17.0857 19.093C17.0744 19.0892 17.0593 19.0855 17.048 19.0779C16.9499 19.0364 16.8744 18.9647 16.814 18.8704L13.6369 20.5005L8.96927 31.8808L12.4143 37.3484C12.3992 37.3144 12.3879 37.2804 12.3766 37.2465C12.3728 37.2352 12.369 37.2276 12.3653 37.2163C12.3615 37.2087 12.3577 37.1974 12.3577 37.1899C10.1918 31.3639 14.1538 25.4209 17.3951 21.8136C19.3045 19.6854 20.961 18.3723 20.961 18.3723L20.7798 18.0704Z" fill="#6BDD99"/>
<path id="Vector_11" d="M17.0352 18.4159L17.0389 18.4235C17.0352 18.4159 17.0389 18.4084 17.0389 18.4008C17.0352 18.4046 17.0352 18.4121 17.0352 18.4159Z" fill="#6BDD99"/>
<path id="Vector_12" d="M12.4236 12.6477L12.4349 12.6515C12.4726 12.6628 12.5028 12.6666 12.5405 12.6666C12.6424 12.6553 12.7481 12.5761 12.8009 12.4515C12.8688 12.2893 12.8122 12.1044 12.6688 12.044C12.6613 12.0365 12.6575 12.0365 12.65 12.0327C12.5179 11.9874 12.3594 12.0742 12.2915 12.2365C12.2462 12.3534 12.2613 12.4855 12.3292 12.5761V12.5798C12.3557 12.6062 12.3858 12.6289 12.4236 12.6477Z" fill="#6BDD99"/>
</g>
<path id="Vector_13" d="M17.4379 18.127C17.4342 18.1232 17.4266 18.1232 17.4229 18.1194C17.287 18.0741 17.1248 18.1609 17.0568 18.3232C17.0568 18.3232 16.9625 18.5798 17.1361 18.7043C17.1436 18.7118 17.1512 18.7194 17.1587 18.7232L17.1625 18.7194C17.17 18.7232 17.1776 18.7307 17.1851 18.7345C17.1927 18.7383 17.2002 18.742 17.204 18.742C17.3398 18.7873 17.4983 18.7005 17.5662 18.542C17.6304 18.376 17.5738 18.1873 17.4379 18.127Z" fill="#6BDD99"/>
</g>
</svg>
