<svg width="112" height="24" viewBox="0 0 112 24" fill="none" xmlns="http://www.w3.org/2000/svg">
<g id="Group">
<path id="Vector" d="M37.1999 6.86052V8.88302H37.0414C36.0641 7.46425 34.2604 6.38885 31.9851 6.38885C27.5326 6.35489 24.4648 9.89427 24.4648 14.7581C24.4648 19.7162 27.6873 23.0632 31.9549 23.0632C34.2604 23.033 36.0603 21.9614 37.0376 20.5049H37.1961V22.5915H38.4979L41.4298 19.6596V6.86052H37.1999ZM32.9964 19.0257C30.5022 19.0257 28.7627 17.1881 28.7627 14.7279C28.7627 12.2639 30.5022 10.4301 32.9964 10.4301C35.4604 10.4301 37.1999 12.2903 37.1999 14.7279C37.1999 17.0674 35.5245 19.0257 32.9964 19.0257Z" fill="#6BDD99"/>
<path id="Vector_2" d="M69.1081 13.0854V22.5941H64.8442V13.7495C64.8442 11.5081 63.6141 10.5572 62.0973 10.5572C60.6445 10.5572 59.0635 11.5987 59.0635 14.2211V22.5941H54.7996V13.7797C54.7996 11.5383 53.5997 10.5874 52.0828 10.5874C50.2829 10.6176 49.049 12.1043 49.049 14.4098V22.5904H44.7852V6.86316H48.8604V8.8517H48.9849C49.966 7.36878 51.513 6.41791 53.4714 6.41791C55.4939 6.41791 57.0712 7.36501 57.9239 8.97622H58.0522C59.222 7.36501 60.9577 6.41791 63.1387 6.41791C66.3272 6.42168 69.1081 8.53851 69.1081 13.0854Z" fill="#6BDD99"/>
<path id="Vector_3" d="M72.4531 5.15485H74.8869V22.5914H72.4531V5.15485Z" fill="#65A4EF"/>
<path id="Vector_4" d="M92.9542 13.5302V22.5975H90.5845V13.9415C90.5845 10.9719 88.8148 8.9192 85.9735 8.9192C82.8454 8.9192 80.604 11.4134 80.604 14.8282V22.5975H78.2344V7.02122H80.5739V9.73801H80.638C81.8379 7.8438 83.9246 6.60992 86.4188 6.60992C90.3015 6.60992 92.9542 9.29653 92.9542 13.5302Z" fill="#65A4EF"/>
<path id="Vector_5" d="M109.192 7.01997H111.686L104.547 22.5925H102.242L95.1328 7.01997H97.7213L103.408 19.5625H103.502L109.192 7.01997Z" fill="#65A4EF"/>
<path id="Vector_6" d="M41.4358 19.666L38.5039 22.5979V20.0018C38.5039 19.8169 38.6548 19.666 38.8397 19.666H41.4358Z" fill="#65A4EF"/>
<g id="Group_2">
<path id="Vector_7" d="M20.9541 15.6297C20.8975 15.7279 20.8371 15.8222 20.7767 15.9203C19.9315 15.1279 19.0636 14.3695 18.2146 13.6148C17.5392 14.4223 16.9845 15.1279 16.3808 15.7882C14.5696 17.7805 11.5207 18.5503 9.1322 17.6447C6.76254 16.7429 5.10604 14.4789 5.04189 12.0451V12.0375C5.03812 11.9508 5.03812 11.8602 5.04189 11.7696C5.04189 11.8149 5.04567 11.8602 5.04567 11.9017V11.9055C5.16264 14.2864 6.80027 16.3882 9.1322 17.1315C11.5207 17.8937 14.5734 16.9391 16.3808 14.8411C16.9808 14.1431 17.5354 13.4073 18.2146 12.5583C19.1693 13.3507 20.1504 14.1506 21.0975 14.9883C21.1767 15.0637 21.0635 15.4411 20.9541 15.6297Z" fill="#65A4EF"/>
<path id="Vector_8" d="M21.0986 17.4451C20.993 17.3394 20.8836 17.23 20.7779 17.1243C20.6156 16.9621 20.4496 16.7998 20.2874 16.6413C19.6006 15.9697 18.9025 15.3169 18.2196 14.6679C17.5441 15.4339 16.9895 16.1055 16.3857 16.7319C14.5745 18.6148 11.5257 19.2034 9.13713 18.1544C6.68069 17.0753 4.99023 14.5736 5.04683 12.0417V12.0341C5.04683 11.9888 5.0506 11.9436 5.0506 11.9021V11.8983C5.05437 11.8417 5.05438 11.7851 5.05815 11.7285C5.28078 8.93999 6.64673 6.86466 9.2692 5.82323C11.952 4.75538 14.3859 5.34401 16.4763 7.3401C17.0272 7.86459 17.5819 8.38154 18.1667 8.93244C19.1025 7.89855 19.9893 6.91372 20.9439 5.85719C20.7854 5.63456 20.6232 5.41571 20.4534 5.20818C20.2949 5.00442 20.1289 4.81198 19.9629 4.62331C17.7554 2.14424 14.9481 0.857533 11.537 0.940546C7.19386 1.0462 3.85068 3.07625 1.89232 6.99673C1.30367 8.17401 0.91879 9.34374 0.733896 10.5021V10.5172C0.718803 10.6191 0.703711 10.7248 0.688618 10.8267C0.688618 10.8304 0.688618 10.8304 0.688618 10.8304V10.8342C0.662204 11.0455 0.639563 11.253 0.628243 11.4643C0.613149 11.6794 0.609375 11.8907 0.609375 12.102C0.609375 12.2303 0.61315 12.3586 0.616923 12.4831C0.616923 12.5171 0.616921 12.5548 0.620695 12.5888C0.624468 12.702 0.632019 12.819 0.643339 12.9359C0.650886 13.0529 0.665976 13.1737 0.681069 13.2906C0.684843 13.3095 0.684844 13.3321 0.688618 13.351C0.696164 13.4152 0.707485 13.4793 0.718805 13.5472C0.718805 13.5472 0.715032 13.551 0.718805 13.551C0.722579 13.5699 0.722574 13.5887 0.726348 13.6038C0.733894 13.6529 0.741444 13.6982 0.752764 13.7472C0.748991 13.751 0.752764 13.751 0.752764 13.7548C0.767857 13.8453 0.782952 13.9359 0.801819 14.0227C0.801819 14.0377 0.805588 14.0566 0.809362 14.0717C0.828228 14.1698 0.850871 14.2679 0.877285 14.366C0.896152 14.4566 0.918789 14.5471 0.945202 14.6377C1.2999 15.9961 1.94891 17.3281 2.88093 18.6148C7.33725 24.7766 16.8612 24.4634 20.9552 18.0601C21.0647 17.8941 21.1779 17.5318 21.0986 17.4451Z" fill="#6BDD99"/>
</g>
<path id="Vector_9" d="M76.1812 2.11456L72.4531 5.84261V2.54095C72.4531 2.307 72.6456 2.11456 72.8795 2.11456H76.1812Z" fill="#65A4EF"/>
</g>
</svg>
